<?xml version="1.0" encoding="UTF-8" standalone="no"?>
<!-- Created with Inkscape (http://www.inkscape.org/) -->

<svg
   width="28.712717mm"
   height="27.55654mm"
   viewBox="0 0 28.712717 27.55654"
   version="1.1"
   id="svg1"
   xml:space="preserve"
   xmlns:inkscape="http://www.inkscape.org/namespaces/inkscape"
   xmlns:sodipodi="http://sodipodi.sourceforge.net/DTD/sodipodi-0.dtd"
   xmlns="http://www.w3.org/2000/svg"
   xmlns:svg="http://www.w3.org/2000/svg"><sodipodi:namedview
     id="namedview1"
     pagecolor="#505050"
     bordercolor="#eeeeee"
     borderopacity="1"
     inkscape:showpageshadow="0"
     inkscape:pageopacity="0"
     inkscape:pagecheckerboard="0"
     inkscape:deskcolor="#d1d1d1"
     inkscape:document-units="mm" /><defs
     id="defs1" /><g
     inkscape:label="Layer 1"
     inkscape:groupmode="layer"
     id="layer1"
     transform="translate(-90.182245,-166.52786)"><path
       style="fill:#ffffff;fill-opacity:1"
       d="m 93.984706,193.51536 c -0.49475,-0.49475 -0.52916,-0.88194 -0.52916,-5.95312 0,-5.07118 -0.0344,-5.45838 -0.52917,-5.95313 -0.29104,-0.29104 -0.80837,-0.52916 -1.14962,-0.52916 -0.34125,0 -0.7994,-0.20836 -1.01811,-0.46302 -0.21872,-0.25467 -0.45965,-0.64162 -0.53541,-0.8599 -0.0758,-0.21828 -0.0434,-0.65052 0.0718,-0.96053 0.11527,-0.31002 3.20958,-3.19728 6.876243,-6.41615 4.452761,-3.90896 6.863891,-5.85249 7.260591,-5.85249 0.32667,0 0.93742,0.26447 1.35723,0.58771 0.4198,0.32324 3.53149,3.00432 6.91485,5.95796 3.38335,2.95364 6.16566,5.57644 6.18291,5.82844 0.0172,0.252 0.006,0.63678 -0.0239,0.85506 -0.0304,0.21828 -0.24153,0.60523 -0.46923,0.8599 -0.22771,0.25466 -0.75274,0.46302 -1.16675,0.46302 -0.41401,0 -0.99087,0.23812 -1.28191,0.52916 -0.49475,0.49475 -0.52917,0.88195 -0.52917,5.95313 0,5.07118 -0.0344,5.45837 -0.52916,5.95312 -0.47026,0.47026 -0.88195,0.52917 -3.69792,0.52917 -1.57418,0 -2.73054,0.15841 -2.99786,-0.15631 -0.19278,-0.22698 -0.20686,-2.11103 -0.24329,-4.40775 -0.0724,-4.56406 -0.0724,-4.56406 -3.37968,-4.56406 -3.30729,0 -3.30729,0 -3.37969,4.56406 -0.0369,2.32567 -0.19412,4.47926 -0.29923,4.50589 -0.14879,0.0377 -1.455253,0.0582 -3.074211,0.0582 -2.948263,0 -3.357593,-0.0566 -3.830213,-0.52917 z"
       id="path1"
       sodipodi:nodetypes="cssssscssssccsssssssssssscc" /></g></svg>
